<mxfile host="app.diagrams.net" modified="2024-05-05T12:21:34.955Z" agent="Mozilla/5.0 (Windows NT 10.0; Win64; x64) AppleWebKit/537.36 (KHTML, like Gecko) Chrome/122.0.0.0 Safari/537.36 Edg/122.0.0.0" etag="nRcV9TrYezvUT3Tm5Qk0" version="24.3.1" type="device">
  <diagram name="第 1 页" id="CFiGCAr4FQk7GO6EfaxW">
    <mxGraphModel dx="1050" dy="611" grid="1" gridSize="10" guides="1" tooltips="1" connect="1" arrows="1" fold="1" page="1" pageScale="1" pageWidth="827" pageHeight="1169" math="0" shadow="0">
      <root>
        <mxCell id="0" />
        <mxCell id="1" parent="0" />
        <mxCell id="8kuT7o2I9mFNRf3g8xRP-10" style="edgeStyle=orthogonalEdgeStyle;rounded=0;orthogonalLoop=1;jettySize=auto;html=1;exitX=0;exitY=0.5;exitDx=0;exitDy=0;entryX=0.5;entryY=0;entryDx=0;entryDy=0;" edge="1" parent="1" source="8kuT7o2I9mFNRf3g8xRP-1" target="8kuT7o2I9mFNRf3g8xRP-4">
          <mxGeometry relative="1" as="geometry" />
        </mxCell>
        <mxCell id="8kuT7o2I9mFNRf3g8xRP-11" style="edgeStyle=orthogonalEdgeStyle;rounded=0;orthogonalLoop=1;jettySize=auto;html=1;exitX=1;exitY=0.5;exitDx=0;exitDy=0;entryX=0.5;entryY=0;entryDx=0;entryDy=0;" edge="1" parent="1" source="8kuT7o2I9mFNRf3g8xRP-1" target="8kuT7o2I9mFNRf3g8xRP-5">
          <mxGeometry relative="1" as="geometry" />
        </mxCell>
        <mxCell id="8kuT7o2I9mFNRf3g8xRP-12" style="edgeStyle=orthogonalEdgeStyle;rounded=0;orthogonalLoop=1;jettySize=auto;html=1;exitX=0.5;exitY=1;exitDx=0;exitDy=0;entryX=0.5;entryY=0;entryDx=0;entryDy=0;" edge="1" parent="1" source="8kuT7o2I9mFNRf3g8xRP-1" target="8kuT7o2I9mFNRf3g8xRP-2">
          <mxGeometry relative="1" as="geometry" />
        </mxCell>
        <mxCell id="8kuT7o2I9mFNRf3g8xRP-1" value="&lt;font style=&quot;font-size: 20px;&quot;&gt;api&lt;/font&gt;" style="rounded=0;whiteSpace=wrap;html=1;" vertex="1" parent="1">
          <mxGeometry x="360" y="280" width="120" height="40" as="geometry" />
        </mxCell>
        <mxCell id="8kuT7o2I9mFNRf3g8xRP-16" style="edgeStyle=orthogonalEdgeStyle;rounded=0;orthogonalLoop=1;jettySize=auto;html=1;exitX=0.25;exitY=1;exitDx=0;exitDy=0;entryX=0.75;entryY=0;entryDx=0;entryDy=0;" edge="1" parent="1" source="8kuT7o2I9mFNRf3g8xRP-2" target="8kuT7o2I9mFNRf3g8xRP-3">
          <mxGeometry relative="1" as="geometry" />
        </mxCell>
        <mxCell id="8kuT7o2I9mFNRf3g8xRP-20" style="edgeStyle=orthogonalEdgeStyle;rounded=0;orthogonalLoop=1;jettySize=auto;html=1;exitX=0.75;exitY=1;exitDx=0;exitDy=0;entryX=0.75;entryY=0;entryDx=0;entryDy=0;" edge="1" parent="1" source="8kuT7o2I9mFNRf3g8xRP-2" target="8kuT7o2I9mFNRf3g8xRP-15">
          <mxGeometry relative="1" as="geometry" />
        </mxCell>
        <mxCell id="8kuT7o2I9mFNRf3g8xRP-2" value="&lt;font style=&quot;font-size: 20px;&quot;&gt;ats&lt;/font&gt;" style="rounded=0;whiteSpace=wrap;html=1;" vertex="1" parent="1">
          <mxGeometry x="360" y="360" width="120" height="40" as="geometry" />
        </mxCell>
        <mxCell id="8kuT7o2I9mFNRf3g8xRP-3" value="&lt;font style=&quot;font-size: 20px;&quot;&gt;task&lt;/font&gt;" style="rounded=0;whiteSpace=wrap;html=1;" vertex="1" parent="1">
          <mxGeometry x="300" y="440" width="120" height="40" as="geometry" />
        </mxCell>
        <mxCell id="8kuT7o2I9mFNRf3g8xRP-8" style="edgeStyle=orthogonalEdgeStyle;rounded=0;orthogonalLoop=1;jettySize=auto;html=1;entryX=0;entryY=0.5;entryDx=0;entryDy=0;exitX=0.75;exitY=1;exitDx=0;exitDy=0;" edge="1" parent="1" source="8kuT7o2I9mFNRf3g8xRP-4" target="8kuT7o2I9mFNRf3g8xRP-3">
          <mxGeometry relative="1" as="geometry">
            <Array as="points">
              <mxPoint x="290" y="460" />
            </Array>
          </mxGeometry>
        </mxCell>
        <mxCell id="8kuT7o2I9mFNRf3g8xRP-19" style="edgeStyle=orthogonalEdgeStyle;rounded=0;orthogonalLoop=1;jettySize=auto;html=1;exitX=0.25;exitY=1;exitDx=0;exitDy=0;entryX=0;entryY=0.5;entryDx=0;entryDy=0;" edge="1" parent="1" source="8kuT7o2I9mFNRf3g8xRP-4" target="8kuT7o2I9mFNRf3g8xRP-15">
          <mxGeometry relative="1" as="geometry" />
        </mxCell>
        <mxCell id="8kuT7o2I9mFNRf3g8xRP-4" value="&lt;font style=&quot;font-size: 20px;&quot;&gt;timer&lt;/font&gt;" style="rounded=0;whiteSpace=wrap;html=1;" vertex="1" parent="1">
          <mxGeometry x="200" y="360" width="120" height="40" as="geometry" />
        </mxCell>
        <mxCell id="8kuT7o2I9mFNRf3g8xRP-17" style="edgeStyle=orthogonalEdgeStyle;rounded=0;orthogonalLoop=1;jettySize=auto;html=1;exitX=0.25;exitY=1;exitDx=0;exitDy=0;entryX=1;entryY=0.5;entryDx=0;entryDy=0;" edge="1" parent="1" source="8kuT7o2I9mFNRf3g8xRP-5" target="8kuT7o2I9mFNRf3g8xRP-3">
          <mxGeometry relative="1" as="geometry" />
        </mxCell>
        <mxCell id="8kuT7o2I9mFNRf3g8xRP-18" style="edgeStyle=orthogonalEdgeStyle;rounded=0;orthogonalLoop=1;jettySize=auto;html=1;exitX=0.75;exitY=1;exitDx=0;exitDy=0;entryX=1;entryY=0.5;entryDx=0;entryDy=0;" edge="1" parent="1" source="8kuT7o2I9mFNRf3g8xRP-5" target="8kuT7o2I9mFNRf3g8xRP-15">
          <mxGeometry relative="1" as="geometry" />
        </mxCell>
        <mxCell id="8kuT7o2I9mFNRf3g8xRP-5" value="&lt;font style=&quot;font-size: 20px;&quot;&gt;wait_queue&lt;/font&gt;" style="rounded=0;whiteSpace=wrap;html=1;" vertex="1" parent="1">
          <mxGeometry x="520" y="360" width="120" height="40" as="geometry" />
        </mxCell>
        <mxCell id="8kuT7o2I9mFNRf3g8xRP-15" value="&lt;font style=&quot;font-size: 20px;&quot;&gt;lite_executor&lt;/font&gt;" style="rounded=0;whiteSpace=wrap;html=1;dashed=1;" vertex="1" parent="1">
          <mxGeometry x="360" y="520" width="120" height="40" as="geometry" />
        </mxCell>
      </root>
    </mxGraphModel>
  </diagram>
</mxfile>
